<svg t="1636353977756" class="icon" viewBox="0 0 5101 1024" version="1.1" xmlns="http://www.w3.org/2000/svg" p-id="3895" width="200" height="200"><path d="M1595.083573 165.827432a543.251799 543.251799 0 0 1 84.972917-7.006224c138.866945 0 143.717407 86.589738 125.752732 159.705969a241.445244 241.445244 0 0 1-81.918922 131.321781 234.439021 234.439021 0 0 1-144.974935 43.474516 481.453314 481.453314 0 0 1-69.702942-3.952229l85.87115-323.543813z m-27.306307 285.99764a205.695539 205.695539 0 0 0 31.61783 1.796468c73.116231 0 128.986373-43.115222 153.418332-133.836835 21.377964-79.942808-8.443398-121.261562-78.685281-121.261563a204.617659 204.617659 0 0 0-39.34264 3.413289l-67.008241 249.888641zM1976.114349 297.508506a63.954246 63.954246 0 0 0-14.192094-1.437174c-33.23465 0-61.439192 27.665601-71.858703 68.984356l-33.773591 125.752731h-49.402859l44.193103-164.736078c7.365517-27.665601 13.114213-50.480739 17.964676-71.858703h43.115222l-10.060218 43.474515h1.796467a95.033136 95.033136 0 0 1 74.014465-48.504625c3.988158-0.071859 7.976316 0.359294 11.856686 1.257528l-13.653154 47.06745zM2197.978097 370.085797c-23.713372 88.745499-89.82338 125.752731-143.717407 125.752731-60.900251 0-95.212782-45.091337-74.733052-121.620855 21.377964-80.122455 82.098569-125.752731 143.717407-125.752732 61.618838 0 94.314548 49.043565 74.733052 121.620856z m-85.511858-84.25433c-42.216988 0-70.601176 45.630277-81.559628 86.410091-12.395626 46.528511-1.257527 85.691504 35.031118 85.691504s68.445415-39.162993 81.020688-86.410091c10.599159-39.162993 6.826577-85.691504-34.492178-85.691504zM2313.67061 289.783696a112.099578 112.099578 0 0 1 85.691504-41.318755c52.816147 0 79.763161 47.247098 60.002017 120.902269-23.354079 86.769385-83.535743 125.752731-133.118248 125.752731a52.09756 52.09756 0 0 1-53.894028-32.69571h-0.898234l-33.23465 123.956264h-49.402859l68.804709-256.355925c8.263751-31.078889 14.012447-55.510849 17.964676-76.709166h43.474515l-7.006223 35.929352 1.616821 0.53894zM2289.777591 395.236343c-11.497393 42.576282 12.75492 60.720605 37.007232 60.720605 38.26476 0 68.804709-35.929352 81.918922-84.79327 12.036333-45.091337 1.976114-82.637509-35.929352-82.637509a83.71539 83.71539 0 0 0-71.858703 62.876365l-11.138099 43.833809zM2643.681706 298.227094a68.445415 68.445415 0 0 0-41.139108-13.293861 41.139108 41.139108 0 0 0-41.857695 28.923129c-4.311522 16.347855 4.131875 24.431959 29.282422 37.007232 34.492178 15.808915 49.223212 37.366526 39.88158 71.858704-12.21598 45.45063-53.894028 71.858704-107.788055 71.858703a106.710175 106.710175 0 0 1-59.642724-15.808915l20.839024-37.007232a91.979141 91.979141 0 0 0 49.402859 15.808915 44.552396 44.552396 0 0 0 47.606391-30.899243c4.850462-17.964676-2.335408-28.024894-27.306307-40.061227-37.186879-16.707149-49.223212-40.420521-41.678048-67.906475a101.859712 101.859712 0 0 1 100.242891-71.858704 94.673842 94.673842 0 0 1 52.09756 13.653154l-19.94079 37.72582zM2853.688767 490.628772h-49.402858l37.007232-138.507651c9.161985-33.953237 5.389403-62.337425-27.845248-62.337425a73.295878 73.295878 0 0 0-64.85248 55.870142l-38.8037 144.974934h-49.402858l91.97914-345.101424H2802.489441l-37.725819 140.304119a107.788055 107.788055 0 0 1 77.427753-37.366526c35.929352 0 69.702943 24.072666 49.762152 98.805718l-38.26476 143.358113zM2965.249405 490.628772h-49.402859l63.594953-237.493015h49.402858l-63.594952 237.493015z m48.684271-273.602014a20.839024 20.839024 0 0 1-20.839024-28.923128 39.162993 39.162993 0 0 1 35.929352-29.282422c17.964676 0 25.150546 12.575273 20.659377 29.282422a38.624053 38.624053 0 0 1-35.749705 28.923128zM3127.650075 289.783696a112.099578 112.099578 0 0 1 85.691504-41.318755c52.816147 0 79.763161 47.247098 60.002017 120.902269-23.354079 86.769385-83.535743 125.752731-133.118248 125.752731a52.09756 52.09756 0 0 1-53.894028-32.69571h-0.898234l-33.23465 123.956264h-49.402859L3071.959579 330.204217c8.263751-31.078889 14.012447-55.510849 17.964676-76.709166h43.474516l-7.006224 35.929351 1.257528 0.359294zM3103.757056 395.236343c-11.497393 42.576282 12.75492 60.720605 37.007232 60.720605 38.26476 0 68.804709-35.929352 81.918922-84.79327 12.036333-45.091337 1.976114-82.637509-35.929351-82.637509a83.71539 83.71539 0 0 0-71.858704 62.876365l-11.138099 43.833809zM3388.317522 289.783696a112.099578 112.099578 0 0 1 85.691504-41.318755c52.816147 0 79.763161 47.247098 60.002018 120.902269-23.174432 86.769385-83.535743 125.752731-132.938602 125.752731a52.277207 52.277207 0 0 1-53.894028-32.69571l-33.23465 123.956264h-49.402859l68.804709-256.355925c8.263751-31.078889 14.012447-55.510849 17.964676-76.709166H3395.323746l-7.006224 35.929352v0.53894zM3364.424503 395.236343c-11.497393 42.576282 12.75492 60.720605 37.007233 60.720605 38.26476 0 68.804709-35.929352 81.918922-84.79327 12.036333-45.091337 2.155761-82.637509-35.929352-82.637509a83.71539 83.71539 0 0 0-71.858704 62.876365l-11.138099 43.833809zM3599.402464 490.628772h-49.402859l63.7746-237.493015h49.402858l-63.774599 237.493015z m48.684272-273.602014a20.839024 20.839024 0 0 1-20.839024-28.923128A39.162993 39.162993 0 0 1 3664.793884 158.821208c17.066442 0 25.150546 12.575273 20.659378 29.282422a38.26476 38.26476 0 0 1-37.366526 28.923128zM3856.83627 490.628772h-49.402859l37.007232-139.046591c8.982338-33.414297 5.56905-61.798485-28.204541-61.798485a74.014465 74.014465 0 0 0-65.750714 58.025903l-38.264759 143.717407h-49.223212l45.630276-170.484774c7.006224-26.228427 11.497393-46.348864 16.168209-66.648948h42.935575l-6.826577 35.929352h1.257528a109.584523 109.584523 0 0 1 82.278215-41.857695c35.929352 0 71.858704 24.072666 51.55862 97.188897l-39.162993 144.974934zM4178.403968 253.495051c-5.748696 16.886795-11.856686 35.929352-20.47973 68.445415l-35.929352 135.094362c-12.75492 47.426744-40.061227 134.735069-151.082924 134.73507a125.752731 125.752731 0 0 1-69.523296-17.964676l21.377964-38.8037a103.11724 103.11724 0 0 0 58.924137 16.886795c38.444406 0 71.858704-21.557611 85.871151-75.271992l6.10799-22.815138h-0.898234a99.344658 99.344658 0 0 1-74.553405 34.851471c-55.331202 0-79.942808-49.582505-62.157779-115.692513 21.557611-80.481748 81.559629-125.752731 132.758955-125.752731 34.851471 0 49.762152 17.964676 53.894028 37.007232l10.778806-31.977123 44.911689 1.257528z m-76.170225 91.619847c8.443398-31.258536-5.030109-57.127669-35.929352-57.12767-34.132884 0-66.828594 32.69571-80.302102 83.535743-12.575273 46.348864 0 79.583514 35.929352 79.583514a74.373758 74.373758 0 0 0 67.008241-59.463077l13.293861-46.52851zM4176.787148 461.346351a45.270983 45.270983 0 0 1 41.139107-34.492178c17.964676 0 27.845248 14.371741 22.455845 34.492178a43.654162 43.654162 0 0 1-41.139108 33.953237c-19.581497 0-27.485954-15.090328-22.455844-33.953237zM4440.149296 483.263255a175.15559 175.15559 0 0 1-63.774599 12.036333c-67.726828 0-99.344658-46.887804-79.583514-120.902269a163.119257 163.119257 0 0 1 155.214799-125.752731 106.710175 106.710175 0 0 1 49.402859 10.599159l-19.94079 38.444406a75.631286 75.631286 0 0 0-39.701934-9.521278c-45.98957 0-81.739275 37.905466-94.134902 84.25433-14.012447 52.09756 8.084104 83.176449 48.863919 83.176449a127.010259 127.010259 0 0 0 46.887804-9.521278l-3.233642 37.186879zM4717.164599 370.085797c-23.893019 88.745499-90.721613 125.752731-143.717408 125.752731-60.900251 0-95.212782-45.091337-74.733051-121.620855 21.377964-80.122455 82.098569-125.752731 143.717407-125.752732 61.618838 0 94.134902 49.043565 74.733052 121.620856z m-85.691504-84.25433c-42.216988 0-70.601176 45.630277-81.559629 86.410091-12.395626 46.528511-1.077881 85.691504 35.929352 85.691504s68.445415-39.162993 81.200335-86.410091c9.521278-39.162993 5.748696-85.691504-35.570058-85.691504zM5055.798739 490.628772h-48.504624l35.929351-135.453656c10.599159-39.701934 4.850462-65.930361-24.970899-65.93036a70.241883 70.241883 0 0 0-60.002018 55.151555l-39.162993 146.232461h-48.504625l38.26476-142.819173c8.802691-33.23465 3.233642-58.564843-25.330193-58.564843a73.295878 73.295878 0 0 0-62.696719 57.666609l-38.444407 143.717407h-48.684271l45.809923-170.484774c7.006224-26.58772 11.497393-46.348864 16.168208-66.648947h42.576282l-6.826577 34.851471h1.077881a104.913707 104.913707 0 0 1 79.403868-39.881581 46.169217 46.169217 0 0 1 50.480739 43.294869h0.898234a110.482757 110.482757 0 0 1 84.79327-43.294869c34.851471 0 66.648948 24.072666 46.708157 98.805718l-38.983347 143.358113z" fill="#08ACEB" p-id="3896"></path><path d="M1657.959939 693.809257L1580.891479 792.794621l-19.401849 71.858704h-24.791253l19.222203-71.858704-21.018671-99.703951H1562.926804l7.006223 44.732043c1.976114 12.575273 3.772582 23.354079 4.850463 35.929352 7.18587-11.497393 15.090328-22.994785 23.893019-35.929352l31.258536-44.552396 28.024894 0.53894zM1746.166498 802.495546c-12.395626 46.169217-45.98957 65.211774-71.858704 65.211774-30.360302 0-47.247098-23.533725-35.929352-63.415306 11.317746-39.881581 41.678048-65.211774 72.756938-65.211774s45.091337 25.50984 35.031118 63.415306z m-42.396635-44.013456c-21.018671 0-35.929352 23.893019-41.139108 45.091337-6.467283 24.252312-1.077881 44.552396 17.964676 44.552396s34.312531-20.300084 40.959461-44.91169c4.491169-20.479731 3.053995-44.732043-17.785029-44.732043zM1858.625369 829.801853c-3.772582 13.8328-6.287637 25.50984-8.443398 35.929352h-21.737258l3.592936-17.964676a55.151555 55.151555 0 0 1-40.779815 20.479731c-20.120437 0-34.312531-13.29386-23.713372-52.6365l19.761144-73.475525h24.611606l-17.964676 69.164002c-5.748696 21.198318-3.772582 35.929352 12.395626 35.929352a35.929352 35.929352 0 0 0 31.977123-28.024894l20.479731-76.349873h24.611606l-24.791253 86.949031zM2013.660522 765.12902a31.977123 31.977123 0 0 0-19.581497-7.006223 20.659377 20.659377 0 0 0-21.018671 15.090327c-2.335408 8.443398 1.796468 12.75492 14.371741 19.222204a29.282422 29.282422 0 0 1 19.581497 37.366525 52.6365 52.6365 0 0 1-53.894028 37.905467 51.917913 51.917913 0 0 1-29.641715-8.263751l10.778806-19.40185a42.216988 42.216988 0 0 0 24.611606 8.443397 22.635492 22.635492 0 0 0 23.893018-16.168208c2.515055-9.521278-1.077881-14.551387-13.473506-20.839024-17.964676-8.802691-24.252312-21.018671-20.479731-35.929352a51.917913 51.917913 0 0 1 50.480739-37.007232 46.348864 46.348864 0 0 1 26.04878 7.18587l-11.677039 19.40185zM2107.795424 860.341803a104.374767 104.374767 0 0 1-39.34264 7.365517c-35.929352 0-49.043565-24.9709-38.983347-62.517073s37.366526-66.110007 70.601176-66.110007 38.444406 28.923128 30.180656 59.283431a89.82338 89.82338 0 0 1-3.592936 11.138099h-74.373758c-6.826577 27.665601 6.64693 38.26476 25.150546 38.264759a80.661395 80.661395 0 0 0 31.258537-5.928343l-0.898234 18.503617z m1.07788-69.523296c4.131875-14.731034 3.413288-33.23465-15.629268-33.234651s-30.719596 17.964676-35.929352 33.234651h51.55862zM2160.970864 865.192265h-24.791252l48.145331-179.646759H2209.655136zM2217.2003 865.192265H2191.69046l48.145332-179.646759h24.791252zM2308.460854 787.944159h58.564843l-5.030109 17.964676h-58.564844zM2640.807358 693.809257l-87.487972 171.383008h-25.869133l4.491169-82.637509a487.920598 487.920598 0 0 1 5.569049-55.510849c-7.545164 17.964676-15.629268 35.929352-26.04878 55.510849l-41.498401 82.637509H2443.195923l7.72481-171.383008h26.228427l-5.748696 81.559628c-1.616821 21.018671-3.592935 42.037342-5.56905 59.822371 7.545164-17.964676 17.964676-38.624053 28.204542-60.361311l40.061227-81.020688h24.791253l-4.850463 81.559628c-1.437174 20.120437-2.874348 39.881581-5.748696 59.642724 8.084104-20.300084 17.964676-39.522287 26.947014-60.361311l38.983346-80.841041H2640.807358zM2700.270435 860.341803a104.374767 104.374767 0 0 1-39.34264 7.365517c-35.929352 0-49.043565-24.9709-38.8037-62.517073 10.239865-37.546173 37.186879-66.110007 70.421529-66.110007s38.444406 28.923128 30.180656 59.283431a89.82338 89.82338 0 0 1-3.592935 11.138099h-74.373759c-6.826577 27.665601 6.64693 38.26476 25.150547 38.264759a80.661395 80.661395 0 0 0 31.258536-5.928343l-0.898234 18.503617z m1.077881-69.523296c4.311522-14.731034 3.413288-33.23465-15.629268-33.234651s-30.719596 17.964676-35.929352 33.234651h51.55862zM2861.593225 765.12902a32.336417 32.336417 0 0 0-20.479731-7.006223 21.018671 21.018671 0 0 0-20.659377 14.37174c-2.155761 8.443398 1.976114 12.75492 14.551387 19.222204a29.462068 29.462068 0 0 1 19.581497 37.366525 52.6365 52.6365 0 0 1-53.894028 37.905467 51.01968 51.01968 0 0 1-29.641715-8.263751l10.599159-19.40185a43.115222 43.115222 0 0 0 24.611606 8.443397 22.635492 22.635492 0 0 0 23.893019-16.168208c2.515055-9.521278-0.898234-14.551387-13.29386-20.839024-17.964676-8.802691-24.431959-21.018671-20.479731-35.929352a51.738267 51.738267 0 0 1 50.480739-37.007232 46.348864 46.348864 0 0 1 26.04878 7.18587l-11.317745 20.120437zM2986.447722 802.495546c-12.395626 46.169217-45.98957 65.211774-71.858703 65.211774-30.360302 0-47.247098-23.533725-35.929352-63.415306 11.317746-39.881581 41.678048-65.211774 72.756937-65.211774s45.091337 25.50984 35.031118 63.415306z m-42.396635-44.013456c-21.018671 0-35.929352 23.893019-41.139108 45.091337-6.467283 24.252312-1.077881 44.552396 17.066442 44.552396s34.312531-20.300084 40.959461-44.91169c5.389403-20.479731 3.233642-44.732043-16.886795-44.732043zM3098.906593 829.801853c-3.772582 13.8328-6.287637 25.50984-8.443397 35.929352h-21.737258l3.592935-17.964676a55.151555 55.151555 0 0 1-40.779814 20.479731c-20.120437 0-34.312531-13.29386-23.713372-52.6365l19.761143-73.475525h24.611606l-17.964676 69.164002c-5.748696 21.198318-3.772582 35.929352 12.395626 35.929352a35.929352 35.929352 0 0 0 31.977124-28.024894l20.47973-76.349873h24.611606l-24.791253 86.949031zM3207.053942 764.59008a38.26476 38.26476 0 0 0-7.006223 0c-16.707149 0-30.899243 14.371741-35.929352 35.929352l-17.964676 65.39142h-24.611606l22.276198-86.589738c3.772582-14.192094 6.826577-26.04878 9.161985-37.546172h21.557611l-5.209756 22.635491h0.898234a48.145331 48.145331 0 0 1 37.186879-25.330193c1.976114-0.287435 3.952229-0.287435 5.928343 0l-6.287637 25.50984zM3279.271939 862.317917a85.871151 85.871151 0 0 1-31.977123 6.287636c-33.773591 0-49.402859-24.431959-38.983346-63.056012a83.176449 83.176449 0 0 1 78.14634-65.571067 49.941799 49.941799 0 0 1 24.611606 5.569049l-10.239866 19.940791a37.007232 37.007232 0 0 0-19.761143-4.850463 53.894028 53.894028 0 0 0-47.426744 42.935576c-7.18587 27.126661 3.592935 43.294869 23.893019 43.294869a60.181664 60.181664 0 0 0 23.533725-5.03011l-1.796468 20.479731zM3387.419288 860.341803a104.015473 104.015473 0 0 1-39.162993 7.365517c-35.929352 0-49.043565-24.9709-38.983347-62.517073s37.186879-66.110007 70.42153-66.110007 38.444406 28.923128 30.180655 59.283431a89.82338 89.82338 0 0 1-3.592935 11.138099h-74.373758c-6.826577 27.665601 6.826577 38.26476 25.330193 38.264759a80.481748 80.481748 0 0 0 31.078889-5.928343l-0.898234 18.503617z m1.077881-69.523296c4.311522-14.731034 3.413288-33.23465-15.449621-33.234651s-30.899243 17.964676-35.929352 33.234651h51.378973zM3553.59254 835.909843a184.317575 184.317575 0 0 0-6.287636 29.282422h-22.276198l2.155761-14.371741a52.816147 52.816147 0 0 1-37.366526 16.886796c-21.916905 0-29.821362-17.066442-24.791253-35.929352 8.263751-30.719596 37.725819-45.98957 77.787047-45.98957 2.515055-9.161985 7.365517-27.485954-16.168208-27.485955a65.032127 65.032127 0 0 0-30.719596 8.443398v-17.964676a85.511857 85.511857 0 0 1 40.600167-10.239865c34.492178 0 37.546173 23.893019 30.539949 50.121446l-13.473507 47.247097z m-14.551387-32.69571c-19.40185 0-42.755929 3.772582-48.684272 25.689487-3.592935 13.653154 2.874348 19.761143 12.036333 19.761143a34.312531 34.312531 0 0 0 31.078889-25.150546l5.56905-20.300084zM3673.596575 865.192265h-24.611606l19.40185-71.858704c4.670816-17.964676 3.053995-32.15677-13.8328-32.156769a37.905466 37.905466 0 0 0-33.055004 29.282421l-19.94079 74.373758h-24.791253l23.893019-88.745498c3.592935-13.653154 5.928343-24.072666 8.443398-34.671825h21.377964l-3.592935 17.964676a55.331202 55.331202 0 0 1 41.318755-21.018671c17.964676 0 35.929352 12.575273 25.150546 50.660386l-19.761144 76.170226zM3811.38564 832.316908c-3.053995 11.138099-6.10799 24.431959-7.904458 32.875357h-21.737258l3.772582-19.222203a53.894028 53.894028 0 0 1-41.318754 21.737258c-26.58772 0-40.240874-24.9709-30.001009-63.056013 11.317746-41.857695 40.420521-65.571067 66.469301-65.571067a25.150546 25.150546 0 0 1 26.767367 16.527502l17.964676-70.062236h24.791253l-38.8037 146.771402z m-13.832801-40.600167c5.389403-20.120437-3.592935-31.977123-17.964676-31.977124-17.964676 0-34.492178 19.581497-41.139108 44.013456-6.64693 24.431959-1.257527 42.935575 17.964676 42.935576a40.779814 40.779814 0 0 0 35.929352-32.15677l5.209756-22.815138zM3966.959733 765.12902a32.336417 32.336417 0 0 0-20.479731-7.006223 21.018671 21.018671 0 0 0-21.198317 15.090327c-2.155761 8.443398 1.976114 12.75492 14.551387 19.222204a29.102775 29.102775 0 0 1 19.40185 37.366525 52.277207 52.277207 0 0 1-53.894027 37.905467 51.01968 51.01968 0 0 1-29.641716-8.263751l10.599159-19.40185a43.115222 43.115222 0 0 0 24.611606 8.443397 22.635492 22.635492 0 0 0 23.893019-16.168208c2.515055-9.521278-0.898234-14.551387-13.29386-20.839024-17.964676-8.802691-24.431959-21.018671-20.479731-35.929352a51.917913 51.917913 0 0 1 51.199327-36.468292 45.270983 45.270983 0 0 1 25.869133 7.185871l-11.138099 18.862909zM4070.615913 865.192265h-24.611606l19.40185-71.858704c4.670816-17.964676 2.874348-32.516063-13.653154-32.516063a37.186879 37.186879 0 0 0-32.875357 29.641715l-20.300083 75.451639h-24.611606l48.145331-179.646759h24.611606l-19.581497 72.936584a53.894028 53.894028 0 0 1 38.983347-19.40185c17.964676 0 34.671824 12.575273 24.252312 51.55862l-19.761143 73.834818zM4126.486055 865.192265h-24.611606l33.055004-123.59697h24.611606l-33.055004 123.59697z m25.869133-142.45988c-8.443398 0-12.395626-6.64693-10.239865-15.090328a19.94079 19.94079 0 0 1 17.964676-15.090327c8.623044 0 12.575273 6.467283 10.239865 15.090327a19.761143 19.761143 0 0 1-17.964676 15.090328zM4208.764271 760.637851a55.510849 55.510849 0 0 1 42.935575-21.557611c26.408074 0 39.701934 24.611606 29.462069 62.876366-12.21598 45.270983-42.576282 65.750714-67.187888 65.750714a25.869133 25.869133 0 0 1-26.767367-17.066442l-17.964676 64.493186h-24.791253l35.929352-133.477542c4.311522-16.168208 7.365517-28.923128 9.880571-39.88158h21.737258l-3.772582 18.862909h0.538941z m-12.575273 53.894028c-5.928343 22.276198 6.10799 31.61783 17.964675 31.61783 19.222203 0 34.492178-17.964676 41.498402-44.193103 7.006224-26.228427 1.437174-42.935575-17.964676-42.935576a42.935575 42.935575 0 0 0-35.929352 32.695711l-5.569049 22.815138zM4372.422468 741.774942a85.691504 85.691504 0 0 1 25.869133-47.247098 50.840033 50.840033 0 0 1 31.61783-11.497393 39.162993 39.162993 0 0 1 16.886795 3.413289l-7.904457 19.94079a26.58772 26.58772 0 0 0-11.856686-2.515055c-15.269975 0-23.893019 14.551387-28.384188 31.258536l-1.796468 6.646931h25.689487l-5.209756 19.581496h-25.50984l-27.845248 103.835827h-24.611606l27.845248-103.835827h-15.808915l5.209756-19.581496h15.808915zM4524.583273 802.495546c-12.395626 46.169217-45.98957 65.211774-71.858704 65.211774-30.360302 0-47.247098-23.533725-35.929351-63.415306 11.317746-39.881581 41.678048-65.211774 72.756937-65.211774s45.270983 25.50984 35.031118 63.415306z m-42.216988-44.013456c-21.018671 0-35.929352 23.893019-41.139108 45.091337-6.467283 24.252312-1.077881 44.552396 16.886795 44.552396s34.492178-20.300084 40.959461-44.91169c5.56905-20.479731 3.952229-44.732043-16.707148-44.732043zM4618.179234 764.59008a38.26476 38.26476 0 0 0-7.006223 0c-16.527502 0-30.899243 14.371741-35.929352 35.929352l-17.964676 65.39142h-24.791253l22.994786-85.871151c3.952229-14.192094 6.826577-26.04878 9.341631-37.546172h21.377964l-5.209756 21.916904a48.145331 48.145331 0 0 1 37.186879-25.330193c1.976114-0.287435 3.952229-0.287435 5.928344 0l-5.928344 25.50984zM4783.993193 741.774942l-51.199326 85.511857a296.776446 296.776446 0 0 1-58.564844 77.787047 82.817156 82.817156 0 0 1-31.438183 15.808914v-21.916904a83.71539 83.71539 0 0 0 44.91169-38.085113 12.575273 12.575273 0 0 0 0-5.389403l-9.700925-113.716398h26.947014l2.694701 69.343649v24.791252c3.592935-7.18587 8.443398-16.347855 12.75492-24.791252l37.546173-69.343649h26.04878zM4886.391846 802.495546c-12.395626 46.169217-45.98957 65.211774-71.858704 65.211774-30.360302 0-47.247098-23.533725-35.929352-63.415306 11.317746-39.881581 41.857695-65.211774 72.756938-65.211774 30.899243 0 44.91169 25.50984 35.031118 63.415306z m-42.216989-44.013456c-21.198318 0-35.929352 23.893019-41.318754 45.091337-6.467283 24.252312-1.077881 44.552396 17.964676 44.552396s34.312531-20.300084 40.959461-44.91169c4.491169-20.479731 2.874348-44.732043-17.785029-44.732043h0.179646zM4998.67107 829.801853c-3.772582 13.8328-6.10799 25.50984-8.443398 35.929352h-21.557611l3.413289-17.964676a55.510849 55.510849 0 0 1-40.779815 20.479731c-20.300084 0-34.312531-13.29386-23.893018-52.6365l19.761143-73.475525h24.611606l-17.964676 69.164002c-5.748696 21.198318-3.772582 35.929352 12.395626 35.929352a35.929352 35.929352 0 0 0 31.977124-28.024894l20.47973-76.349873h24.611606l-24.611606 86.949031zM5021.665855 850.461231a22.455845 22.455845 0 0 1 20.479731-17.964676c9.341631 0 13.653154 7.365517 10.958452 17.964676a22.276198 22.276198 0 0 1-20.47973 17.964676c-9.700925-0.718587-13.473507-8.623044-10.958453-17.964676z m35.929352-35.929352h-19.042556l27.485954-120.902269h26.947014l-35.390412 120.902269z" fill="#515050" p-id="3897"></path><path d="M1352.919742 285.472174c14.910681 0 38.085113 1.257527 69.523296 1.796467-22.994785 155.699846-57.253422 274.446354-102.757946 356.239523-62.696719 122.698736-95.572076 178.209585-163.658198 243.601006-66.469301 61.978132-167.251133 166.712192-380.851129 110.482756C616.36803 955.913878 586.726315 794.231795 610.798981 718.60051c24.072666-75.631286 100.422538-145.693522 245.397473-145.693522 96.524204 0 210.312461 42.630176 341.328842 127.908492l1.976114 16.168209-40.779814 25.150546-21.916905 1.796468c-118.566861-82.996803-233.720434-124.908392-345.460717-125.752732-115.153573 4.131875-156.29268 107.788055-150.184691 137.968711-1.257527 26.228427 11.856686 164.017491 176.952058 197.611435 114.614632 29.282422 199.228256 0 288.692341-67.547181 81.559629-56.049789 159.705969-225.636329 163.658198-236.055842 3.952229-10.419512 0-12.395626-4.311522-8.982338a58.385197 58.385197 0 0 1-82.457863 1.616821l-2.515054-2.694701a60.361311 60.361311 0 0 1-4.491169-49.762152h16.347855c24.431959 37.600067 44.06735 44.426644 58.924137 20.47973 15.629268-27.126661-15.808915-53.894028-27.845248-62.696719a156.651974 156.651974 0 0 1-46.348864-131.142134 147.489989 147.489989 0 0 1 92.338434-124.13591 251.505463 251.505463 0 0 1 82.817156-7.365517zM888.353223 25.343667a89.82338 89.82338 0 0 1 24.252313 61.079898 64.493186 64.493186 0 0 1 23.893019-5.56905 16.527502 16.527502 0 0 1 15.090328 17.964676v3.413288c-4.131875 14.910681-39.881581 28.384188-39.881581 28.384188s-33.414297 83.176449-44.91169 101.500419c-13.114213 30.180656-98.626071 139.046591-164.197137 183.778635-65.571067 44.732043-112.638518 67.547181-149.825397 35.929351-37.186879-31.61783 10.778806-105.452648 28.563834-135.812949a549.359789 549.359789 0 0 1 129.70496-124.135911c97.368543-75.810932 125.752731-82.457862 133.297895-86.769384 7.545164-4.311522 5.389403-34.851471 3.952229-37.546173-1.437174-2.694701-7.724811-28.923128-71.858703-15.808915-64.133893 13.114213-240.187717 108.686289-305.399491 159.705969-65.211774 51.01968-265.697557 197.611435-324.621693 296.057859l-6.467284 10.778805c-56.049789 95.212782-100.961479 190.605211-34.671824 240.726657 32.69571 26.947014 116.590747 13.473507 139.765178 6.826577a846.495529 846.495529 0 0 0 212.162823-111.560637A579.899738 579.899738 0 0 1 503.010925 616.920444c2.874348-1.257527 30.899243-4.491169 25.330193 28.384188-5.56905 32.875357-28.743481 67.547181-107.788055 113.716398-79.044574 46.169217-214.318584 105.093354-304.141963 64.133893s-107.788055-104.374767-107.788056-156.29268a402.40874 402.40874 0 0 1 82.63751-219.169046 1041.951202 1041.951202 0 0 1 155.394446-171.383008c27.126661-23.174432 64.493186-51.199326 112.279225-84.433977C506.60386 95.100503 625.296474 36.068578 714.994101 14.744508c134.914716-31.438183 155.394447-5.209756 173.359122 10.599159z m352.466942 331.98721a69.523296 69.523296 0 0 0-15.269975 84.074683A383.905124 383.905124 0 0 0 1275.491989 500.150051a74.733052 74.733052 0 0 1 27.485954 54.792261 460.61429 460.61429 0 0 0 26.587721-89.823379c3.952229-25.689487 12.036333-67.547181 24.611606-125.752732-52.277207-9.341631-91.080907-3.413288-113.357105 17.964676zM820.446749 157.024741a924.282575 924.282575 0 0 0-170.664422 158.987382c-81.918922 98.805717-56.229436 86.589738-43.474515 82.637509 12.75492-3.952229 93.057021-81.020688 143.717407-140.304119 52.816147-64.672833 73.655171-85.332211 77.427753-95.033136 3.772582-9.700925-7.006224-6.287637-7.006223-6.287636z" fill="#FF7700" p-id="3898"></path></svg>