<svg width="93" height="28" viewBox="0 0 93 28" fill="none" xmlns="http://www.w3.org/2000/svg">
<path d="M0 0H28V28H0V0Z" fill="#339FF8"/>
<path d="M32.4665 11.9075C32.2102 11.9075 31.9803 11.9641 31.7768 12.0772C31.5732 12.1827 31.3998 12.341 31.2566 12.5521C31.1134 12.7556 31.0041 13.0044 30.9287 13.2984C30.8533 13.5924 30.8156 13.9278 30.8156 14.3048C30.8156 14.8098 30.8797 15.2358 31.0078 15.5825C31.136 15.9293 31.332 16.1932 31.5958 16.3741C31.8597 16.5475 32.1914 16.6342 32.5909 16.6342C32.9452 16.6342 33.2882 16.5852 33.6199 16.4872C33.9592 16.3892 34.2984 16.2685 34.6376 16.1253V17.9685C34.2833 18.1268 33.9177 18.2398 33.5408 18.3077C33.1714 18.3831 32.7756 18.4208 32.3535 18.4208C31.479 18.4208 30.7628 18.2474 30.205 17.9006C29.6472 17.5538 29.2363 17.0714 28.9725 16.4532C28.7086 15.8275 28.5767 15.1076 28.5767 14.2935C28.5767 13.6828 28.6596 13.125 28.8255 12.6199C28.9988 12.1073 29.2514 11.6663 29.5831 11.2969C29.9148 10.92 30.3218 10.6298 30.8043 10.4262C31.2943 10.2227 31.8559 10.1209 32.4892 10.1209C32.8812 10.1209 33.292 10.1662 33.7217 10.2566C34.1514 10.3471 34.5735 10.4903 34.9881 10.6863L34.321 12.4051C34.027 12.2618 33.7292 12.145 33.4277 12.0545C33.1262 11.9565 32.8058 11.9075 32.4665 11.9075Z" fill="#339FF8"/>
<path d="M43.5467 14.2595C43.5467 14.8852 43.4714 15.4544 43.3206 15.967C43.1698 16.4721 42.9361 16.9093 42.6195 17.2787C42.3029 17.6481 41.8958 17.9308 41.3983 18.1268C40.9083 18.3228 40.3165 18.4208 39.623 18.4208C38.9445 18.4208 38.3565 18.3228 37.859 18.1268C37.369 17.9308 36.9619 17.6481 36.6377 17.2787C36.3211 16.9093 36.0837 16.4721 35.9254 15.967C35.7746 15.4544 35.6992 14.8815 35.6992 14.2482C35.6992 13.4115 35.8387 12.684 36.1176 12.0658C36.3965 11.4402 36.8262 10.9577 37.4067 10.6185C37.9871 10.2792 38.7297 10.1096 39.6343 10.1096C40.554 10.1096 41.3003 10.283 41.8732 10.6298C42.4537 10.969 42.8758 11.4515 43.1397 12.0772C43.4111 12.6953 43.5467 13.4228 43.5467 14.2595ZM37.9947 14.2595C37.9947 14.742 38.0474 15.1604 38.153 15.5147C38.2661 15.8615 38.4432 16.1291 38.6844 16.3175C38.9257 16.506 39.2385 16.6002 39.623 16.6002C40.0225 16.6002 40.3391 16.506 40.5728 16.3175C40.8141 16.1291 40.9874 15.8615 41.093 15.5147C41.1985 15.1604 41.2513 14.742 41.2513 14.2595C41.2513 13.5283 41.1307 12.9516 40.8894 12.5295C40.6482 12.1073 40.2298 11.8962 39.6343 11.8962C39.2423 11.8962 38.9257 11.9942 38.6844 12.1902C38.4432 12.3787 38.2661 12.6501 38.153 13.0044C38.0474 13.3512 37.9947 13.7695 37.9947 14.2595Z" fill="#339FF8"/>
<path d="M48.5207 18.3077L46.8698 12.4955H46.8246C46.8396 12.6463 46.8547 12.8498 46.8698 13.1062C46.8849 13.3625 46.8999 13.6414 46.915 13.9429C46.9301 14.2369 46.9376 14.5234 46.9376 14.8023V18.3077H45.004V10.234H47.9101L49.5949 15.967H49.6402L51.2911 10.234H54.1972V18.3077H52.1957V14.7684C52.1957 14.5121 52.1995 14.2407 52.207 13.9542C52.2146 13.6602 52.2259 13.3851 52.2409 13.1288C52.256 12.8649 52.2673 12.6576 52.2749 12.5068H52.2296L50.6013 18.3077H48.5207Z" fill="#339FF8"/>
<path d="M59.453 18.3077L57.802 12.4955H57.7568C57.7719 12.6463 57.787 12.8498 57.802 13.1062C57.8171 13.3625 57.8322 13.6414 57.8473 13.9429C57.8623 14.2369 57.8699 14.5234 57.8699 14.8023V18.3077H55.9363V10.234H58.8423L60.5272 15.967H60.5724L62.2233 10.234H65.1294V18.3077H63.128V14.7684C63.128 14.5121 63.1317 14.2407 63.1393 13.9542C63.1468 13.6602 63.1581 13.3851 63.1732 13.1288C63.1883 12.8649 63.1996 12.6576 63.2071 12.5068H63.1619L61.5336 18.3077H59.453Z" fill="#339FF8"/>
<path d="M71.663 18.3077H66.8685V10.234H71.663V11.9867H69.0509V13.2532H71.4707V15.0058H69.0509V16.5324H71.663V18.3077Z" fill="#339FF8"/>
<path d="M75.7205 10.234C76.4517 10.234 77.0586 10.3245 77.541 10.5054C78.031 10.6863 78.3966 10.9539 78.6379 11.3082C78.8866 11.655 79.011 12.0922 79.011 12.6199C79.011 12.9441 78.9545 13.2418 78.8414 13.5132C78.7359 13.7846 78.5813 14.0258 78.3778 14.2369C78.1743 14.448 77.9293 14.6327 77.6428 14.791L79.9948 18.3077H77.5184L75.811 15.3677H75.2569V18.3077H73.0745V10.234H75.7205ZM75.6866 11.8849H75.2569V13.7281H75.6639C75.8901 13.7281 76.0861 13.6979 76.252 13.6376C76.4253 13.5698 76.561 13.4642 76.659 13.321C76.757 13.1702 76.806 12.9705 76.806 12.7217C76.806 12.5483 76.7683 12.4013 76.693 12.2807C76.6176 12.1525 76.4969 12.0545 76.3311 11.9867C76.1653 11.9188 75.9504 11.8849 75.6866 11.8849Z" fill="#339FF8"/>
<path d="M84.3229 11.9075C84.0666 11.9075 83.8367 11.9641 83.6331 12.0772C83.4296 12.1827 83.2562 12.341 83.113 12.5521C82.9697 12.7556 82.8604 13.0044 82.785 13.2984C82.7097 13.5924 82.672 13.9278 82.672 14.3048C82.672 14.8098 82.7361 15.2358 82.8642 15.5825C82.9924 15.9293 83.1884 16.1932 83.4522 16.3741C83.716 16.5475 84.0477 16.6342 84.4473 16.6342C84.8016 16.6342 85.1446 16.5852 85.4763 16.4872C85.8155 16.3892 86.1547 16.2685 86.494 16.1253V17.9685C86.1397 18.1268 85.774 18.2398 85.3971 18.3077C85.0277 18.3831 84.632 18.4208 84.2098 18.4208C83.3354 18.4208 82.6192 18.2474 82.0614 17.9006C81.5035 17.5538 81.0927 17.0714 80.8288 16.4532C80.565 15.8275 80.4331 15.1076 80.4331 14.2935C80.4331 13.6828 80.516 13.125 80.6818 12.6199C80.8552 12.1073 81.1077 11.6663 81.4394 11.2969C81.7711 10.92 82.1782 10.6298 82.6607 10.4262C83.1507 10.2227 83.7123 10.1209 84.3455 10.1209C84.7375 10.1209 85.1484 10.1662 85.5781 10.2566C86.0077 10.3471 86.4299 10.4903 86.8445 10.6863L86.1774 12.4051C85.8834 12.2618 85.5856 12.145 85.2841 12.0545C84.9825 11.9565 84.6621 11.9075 84.3229 11.9075Z" fill="#339FF8"/>
<path d="M92.8649 18.3077H88.0704V10.234H92.8649V11.9867H90.2528V13.2532H92.6727V15.0058H90.2528V16.5324H92.8649V18.3077Z" fill="#339FF8"/>
<path d="M3.22538 18.4175H1.07692V10.3438H5.84877V12.0965H3.22538V18.4175Z" fill="white"/>
<path d="M11.9044 18.4175L11.0563 15.1157H9.33754L8.47816 18.4175H6.08093L8.71562 10.3099H11.6217L14.2903 18.4175H11.9044ZM10.7058 13.7927C10.6681 13.6495 10.6153 13.4459 10.5475 13.1821C10.4796 12.9107 10.4118 12.6318 10.3439 12.3453C10.2761 12.0588 10.2233 11.8252 10.1856 11.6442C10.1555 11.8252 10.1065 12.0513 10.0386 12.3227C9.97831 12.5941 9.91424 12.8617 9.84639 13.1255C9.78608 13.3894 9.73331 13.6118 9.68808 13.7927L9.33754 15.1157H11.0563L10.7058 13.7927Z" fill="white"/>
<path d="M20.437 15.9638C20.437 16.401 20.3239 16.8156 20.0978 17.2076C19.8792 17.5996 19.5362 17.92 19.0688 18.1688C18.6089 18.41 18.0096 18.5306 17.2709 18.5306C16.9015 18.5306 16.5773 18.5118 16.2984 18.4741C16.027 18.4439 15.7707 18.3912 15.5295 18.3158C15.2882 18.2404 15.0395 18.1424 14.7832 18.0218V16.0768C15.2204 16.2955 15.6614 16.4651 16.1062 16.5857C16.5509 16.6988 16.9542 16.7553 17.3161 16.7553C17.5347 16.7553 17.7119 16.7289 17.8476 16.6762C17.9832 16.6234 18.085 16.5518 18.1529 16.4613C18.2207 16.3708 18.2546 16.2691 18.2546 16.156C18.2546 16.0128 18.2056 15.8922 18.1076 15.7942C18.0096 15.6962 17.8551 15.5944 17.644 15.4888C17.4329 15.3833 17.1502 15.2514 16.7959 15.0931C16.4944 14.9574 16.223 14.8142 15.9818 14.6634C15.7406 14.5126 15.5332 14.343 15.3599 14.1545C15.194 13.9661 15.0659 13.7475 14.9754 13.4987C14.8849 13.2424 14.8397 12.9408 14.8397 12.5941C14.8397 12.0739 14.9679 11.6405 15.2242 11.2937C15.4805 10.9394 15.8348 10.6755 16.2871 10.5022C16.7469 10.3212 17.2784 10.2308 17.8815 10.2308C18.4092 10.2308 18.8841 10.2911 19.3062 10.4117C19.7284 10.5248 20.1053 10.6567 20.437 10.8075L19.7699 12.4923C19.4231 12.334 19.0801 12.2096 18.7409 12.1192C18.4092 12.0212 18.1001 11.9722 17.8136 11.9722C17.6252 11.9722 17.4706 11.9948 17.35 12.04C17.2294 12.0852 17.1389 12.1493 17.0786 12.2322C17.0259 12.3076 16.9995 12.3943 16.9995 12.4923C16.9995 12.6205 17.0485 12.7335 17.1465 12.8315C17.2445 12.9295 17.4066 13.0388 17.6327 13.1595C17.8664 13.2725 18.183 13.4195 18.5826 13.6005C18.9746 13.7738 19.3062 13.9661 19.5776 14.1772C19.8566 14.3807 20.0676 14.6257 20.2109 14.9122C20.3616 15.1911 20.437 15.5416 20.437 15.9638Z" fill="white"/>
<path d="M25.2445 18.4175H23.0621V12.1305H21.0945V10.3438H27.212V12.1305H25.2445V18.4175Z" fill="white"/>
<path d="M5.92308 14.5385L3.5 15.4711V13.6058L5.92308 14.5385Z" fill="white"/>
</svg>
